<svg width="136" height="45" viewBox="0 0 136 45" fill="none" xmlns="http://www.w3.org/2000/svg">
<path d="M2.15199 33V11.1818H10.3338C12.0099 11.1818 13.4162 11.473 14.5526 12.0554C15.696 12.6378 16.5589 13.4545 17.1413 14.5057C17.7308 15.5497 18.0256 16.7678 18.0256 18.1598C18.0256 19.5589 17.7273 20.7734 17.1307 21.8033C16.5412 22.826 15.6712 23.6179 14.5206 24.179C13.37 24.733 11.9567 25.0099 10.2805 25.0099H4.45312V21.7287H9.74787C10.728 21.7287 11.5305 21.5937 12.1555 21.3239C12.7805 21.0469 13.2422 20.6456 13.5405 20.12C13.8459 19.5874 13.9986 18.9339 13.9986 18.1598C13.9986 17.3857 13.8459 16.7251 13.5405 16.1783C13.2351 15.6243 12.7699 15.2053 12.1449 14.9212C11.5199 14.63 10.7138 14.4844 9.72656 14.4844H6.1044V33H2.15199ZM13.4233 23.1136L18.8246 33H14.4141L9.10866 23.1136H13.4233ZM15.0637 33V11.1818H23.2455C24.9217 11.1818 26.3279 11.473 27.4643 12.0554C28.6077 12.6378 29.4707 13.4545 30.0531 14.5057C30.6425 15.5497 30.9373 16.7678 30.9373 18.1598C30.9373 19.5589 30.639 20.7734 30.0424 21.8033C29.4529 22.826 28.5829 23.6179 27.4323 24.179C26.2817 24.733 24.8684 25.0099 23.1923 25.0099H17.3648V21.7287H22.6596C23.6397 21.7287 24.4423 21.5937 25.0673 21.3239C25.6923 21.0469 26.1539 20.6456 26.4522 20.12C26.7576 19.5874 26.9103 18.9339 26.9103 18.1598C26.9103 17.3857 26.7576 16.7251 26.4522 16.1783C26.1468 15.6243 25.6816 15.2053 25.0566 14.9212C24.4316 14.63 23.6255 14.4844 22.6383 14.4844H19.0161V33H15.0637ZM26.335 23.1136L31.7363 33H27.3258L22.0204 23.1136H26.335Z" fill="#1F1F1F"/>
<path d="M27.9754 33V11.1818H41.9527V14.495H31.9278V20.4183H40.9939V23.7315H31.9278V33H27.9754Z" fill="#FC3314"/>
<path d="M50.152 33V11.1818H64.3423V14.495H54.1044V20.4183H63.6072V23.7315H54.1044V29.6868H64.4276V33H50.152ZM71.6772 11.1818L76.4819 19.1719H76.6523L81.4783 11.1818H85.9847L79.2624 22.0909L86.0913 33H81.5103L76.6523 25.0632H76.4819L71.6239 33H67.0643L73.957 22.0909L67.1495 11.1818H71.6772ZM91.8894 33H87.6706L95.3517 11.1818H100.231L107.923 33H103.704L97.8766 15.6562H97.7061L91.8894 33ZM92.0279 24.4453H103.534V27.62H92.0279V24.4453ZM110.797 11.1818H115.633L122.11 26.9915H122.366L128.843 11.1818H133.68V33H129.887V18.0107H129.685L123.655 32.9361H120.821L114.792 17.9787H114.589V33H110.797V11.1818Z" fill="#FC3314"/>
</svg>
